<svg xmlns="http://www.w3.org/2000/svg" viewBox="0 0 400 400"><path fill="rgba(255, 255, 255, 0.3)" d="M236.553 6.472c-.559.037-.909.484-.885 1.22.02.629.227.89.83 1.052 1.44.385 2.08-1.65.68-2.166a1.531 1.531 0 0 0-.625-.106zM179.5 9.252c-.779.118-1.448.765-1.294 1.463.231 1.05 1.533 1.786 2.339 1.323.9-.518.726-2.35-.256-2.712a1.584 1.584 0 0 0-.789-.075zm37.566 6.217c-6.306-.285-8.625.492-3.43 1.921 5.694 1.567 1.812 1.65-5.775.125-2.484-.5-5.452-.876-6.593-.837l-2.072.073-.295 1.286c-.349 1.527-.91 1.962-1.412 1.095-.633-1.093-16.828-1.874-21.553-1.04-1.425.253-4.056.367-5.845.253-2.979-.187-3.308-.125-3.906.708-.525.735-.845.903-1.642.867-13.57-.59-40.378 5.116-41.503 8.834-.287.947-.596 1.171-3.297 2.398-1.638.744-2.622 1.106-2.187.806 3.411-2.356 1.375-2.24-4.835.276-4.769 1.931-5.54 2.481-4.943 3.513.45.776-19.613 12.346-25.724 14.836-4.195 1.71-13.164 7.225-17.023 10.47-2.355 1.98-3.046 2.425-3.353 2.155-.598-.528-2.308-.898-2.75-.593-.218.15-.78.64-1.252 1.089-1.323 1.26-2.433 3.155-3.131 5.352-.494 1.554-1.169 2.536-3.01 4.373-3.38 3.376-9.554 12.199-12.27 17.536-1.275 2.505-2.894 5.257-3.599 6.118-.704.86-2.166 3.283-3.247 5.382-1.08 2.098-2.536 4.38-3.234 5.07-.698.689-1.944 2.138-2.769 3.218-1.412 1.853-1.57 1.967-2.705 1.956-1.823-.018-2.744.719-3.474 2.78-.364 1.025-1.413 3.008-2.331 4.403-7.425 11.273-14.563 37.133-11.656 42.223 1.295 2.27 1.59 3.978 1.052 6.107-.808 3.196-1.216 5.962-1.292 8.767-.038 1.412-.218 3.625-.4 4.92-.882 6.274.39 25.963 2.435 37.667.444 2.54.858 5.484.922 6.541.064 1.057.664 3.794 1.335 6.082.67 2.288 1.392 4.956 1.605 5.927.477 2.181 2.498 8.802 4.184 13.71 1.969 5.73 2.01 6.15.676 6.917-1.315.757-1.36 1.28-.372 4.244.576 1.732.575 2.386-.006 3.88-.696 1.786-.66 2.15.634 6.315.487 1.571 3.31 6.242 4.739 7.839 1.43 1.6 1.037-.73-.795-4.714-.999-2.17-2.2-5.12-2.671-6.556-.472-1.436-.913-2.706-.98-2.821-.067-.117.128-.145.432-.063.389.103 2.25 3.314 6.232 10.755 3.123 5.834 6.734 12.433 8.026 14.663l2.349 4.055-1.168 1.784c-1.683 2.57-1.606 2.898 1.988 8.562 3.234 5.1 5.351 7.762 9.236 11.617 3.066 3.04 3.55 2.715 1.131-.76-1.262-1.812-1.755-2.748-1.519-2.884.607-.35 1.516.469 6.13 5.533 2.47 2.71 5.318 5.522 6.33 6.246 1.01.725 1.992 1.588 2.184 1.92.193.332.566.61.83.618.916.027 1.948 1.188 2.318 2.605.436 1.674 4.486 6.063 6.242 6.765.596.238 1.19.62 1.324.85.133.23 1.523.734 3.09 1.121 3.013.745 3.456 1.064 3.039 2.187-.403 1.088.388 2.065 4.088 5.058 4.403 3.562 9.096 7.591 9.965 8.553 1.195 1.325 2.932 1.693 6.62 1.405 1.981-.154 4.69-.204 6.023-.113 2.527.175 3.602-.13 3.448-.976-.266-1.465-9.1-7.283-13.555-8.926-4.956-1.827-4.689-2.48.407-1 5.274 1.53 11.34 4.347 33.252 15.434 8.636 4.369 12.323 5.846 20.199 8.095 20.866 5.956 33.457 7.184 47.256 4.606 3.037-.567 6.095-1.033 6.798-1.035l1.276-.004-1.593.695c-19.202 8.347-56.687 3.515-77.314-9.969-2.714-1.774-4.322-2.235-10.15-2.909-9.727-1.124-16.17-1.432-15.776-.752 1.135 1.96 19.049 12.592 27.944 16.587 4.007 1.8 7.662 3.444 8.12 3.653 1.347.61.805 1.038-1.019.804-5.732-.735-22.854-5.357-23.412-6.32-.086-.149-.39-.136-.678.03-3.689 2.122 29.23 11.87 46.38 13.732 13.099 1.424 16.267 1.205 17.39-1.198.66-1.408 2.967-1.575 7.547-.549 6.1 1.366 18.277.758 30.344-1.517 4.836-.913 5.11-.912 8.438.019 3.624 1.013 5.604.776 15.765-1.876 11.852-3.093 19.6-5.836 20.52-7.266.882-1.371 4.923-3.362 6.637-3.27.869.049 1.987-.417 4.645-1.934 1.924-1.1 6.797-3.724 10.828-5.837l7.332-3.84.432-1.396c.464-1.494.558-1.578 7.115-6.4 7.225-5.313 14.852-12.303 21.061-19.302 5.434-6.123 7.852-8.375 8.443-7.864.155.133-.673 1.463-1.837 2.953l-3.954 5.064c-2.178 2.794-6.872 7.686-12.315 12.834-3.31 3.131-4.752 4.934-3.25 4.07 11.209-6.45 34.561-28.905 34.821-33.485.036-.645.233-1.268.436-1.385 1.731-.996 12.665-17.392 15.792-23.683 2.09-4.2 2.096-4.208 4.114-5.15l2.022-.943 2.189-4.613c1.205-2.537 2.306-4.682 2.45-4.765.668-.384.514.637-.432 2.863-1.097 2.586-1.102 3.062-.025 2.892 1.443-.227 4.119-4.981 5.922-10.518.959-2.943 3.003-9 4.544-13.46 4.34-12.563 8.204-31.023 6.582-31.456-.318-.085-1.53 4.436-4.257 15.892-3.09 12.98-2.748-1.502.409-17.337 2.581-12.945 2.82-15.318 1.684-16.742-.855-1.074-1.014-1.592-.925-3.033.26-4.235-.152-7.495-.892-7.07-.275.159-.414.434-.31.613.33.572-5.96 25.168-7.828 30.593a523.763 523.763 0 0 0-3.817 11.695c-2.558 8.195-4.342 13.014-7.349 19.85-1.315 2.991-3.039 7.048-3.829 9.017-2.39 5.954-6.584 14.898-9.507 20.273-.335.616-.55 1.522-.476 2.013.164 1.117-1.26 2.398-3.91 3.512-4.006 1.685-4.361-.135-.528-2.704 2.312-1.55 2.675-1.964 4.41-5.03 2.416-4.267 6.614-12.768 7.787-15.769.498-1.274 2.111-5.383 3.582-9.129 3.292-8.383 6.039-18.625 7.638-28.48a2423.17 2423.17 0 0 1 3.248-19.272c4.484-25.983 5.304-37.288 3.585-49.398-.215-1.513-.065-3.717.4-5.92.719-3.406.542-5.051-.479-4.464-.678.39-1.162-.562-1.498-2.947-.364-2.59-2.494-9.38-4.203-13.399-.74-1.738-1.357-3.52-1.371-3.961-.037-1.144.645-1.404.914-.348.198.778 2.046 5.554 3.708 9.578 1.195 2.896 1.735 1.184.845-2.68-2.663-11.555-7.355-21.38-19.743-41.36l-5.856-9.448-1.69-.7c-1.556-.645-1.72-.816-2.036-2.144-.247-1.04-.976-2.31-2.613-4.556-1.249-1.713-2.55-3.65-2.892-4.304-3.708-7.097-12.913-18.12-20.19-24.18-1.467-1.224-3.276-2.78-4.023-3.459-1.57-1.43-3.869-2.15-4.101-1.286-.105.39 1.208 1.906 4.458 5.14 8.362 8.32 7.963 7.774 5.544 7.598-1.7-.124-5.997-3.188-12.706-9.056-1.34-1.174-3.308-2.696-4.37-3.387-1.526-.992-2.04-1.548-2.449-2.641-.358-.96-.873-1.612-1.682-2.128-.641-.41-2.459-1.818-4.037-3.131-7.936-6.606-21.017-13.013-32.521-15.927-3.896-.987-4.178-1.126-4.956-2.47-2.216-3.825-14.066-8.746-23.942-9.942-2.858-.346-5.403-.558-7.505-.653zm-61.508 8.49c1.14.045 2.155.171 3.146.369 3.703.74.824 1.5-6.72 1.776-3.768.137-8.065.398-9.547.576-4.853.585-8.79.901-8.898.716-.203-.35.544-.546 5.459-1.436 8.568-1.55 13.139-2.138 16.56-2.002zm121.125.964c-.384.009-.69.235-.703.674-.02.666 1.387 1.444 1.99 1.098.359-.207.324-.544-.122-1.142-.32-.43-.782-.64-1.165-.63zm-75.215.528c6.734.03 13.561 1.14 22.166 3.334 12.753 3.252 14.65 4.384 2.819 1.682-6.162-1.407-15.102-2.954-17.231-2.982-.501-.006-1.542.343-2.31.777-1.415.799-2.81.754-3.309-.109-.912-1.574-12.91-.546-19.707 1.686-3.508 1.153-7.625 1.425-7.597.504.017-.584 1.128-1.132 3.566-1.759 8.228-2.117 14.869-3.164 21.603-3.133zm-36.235 4.901c.497.061-.896.443-3.096.85-2.2.406-4.103.712-4.226.68-.495-.133.52-.44 3.398-1.026 1.66-.34 3.426-.566 3.924-.504zm-11.68 2.884-1.722.854c-.948.47-1.919.947-2.158 1.06-.239.114-.523.056-.628-.126-.258-.446.988-1.07 2.92-1.464zm-12.957 1.152c1.37.12 2.333 1.764 1.96 3.348-.358 1.52-1.2 1.986-2.811 1.555-3.06-.816-2.302-5.178.85-4.903zm86.323 3.51c.825.034 1.217 1.293.576 1.847-.575.496-1.47-.044-1.619-.976-.108-.687.156-.908 1.043-.87zm-11.518.243a.572.572 0 0 1 .139 1.051.575.575 0 0 1-.576-.995.577.577 0 0 1 .437-.056zm34.663.192c.091-.053.97.43 1.955 1.07 2.017 1.312 2.549 1.881 1.146 1.23-1.116-.518-3.336-2.165-3.1-2.3zm-13.545.765c.186-.145.438-.116.818.039 1.939.791 2.143 2.733.305 2.91-1.257.12-1.836-.605-1.548-1.94.118-.544.238-.863.425-1.009zm-44.514 4.113c47.733.526 93.03 23.319 124.126 65.167 7.638 10.28 10.929 15.66 16.599 27.134 12.82 25.94 17.44 52.397 14.578 83.48-1.675 18.195-7.321 36.822-16.38 54.037-5.612 10.668-12.41 21.007-18.69 28.433-10.071 11.91-17.224 18.638-30.123 28.333-4.389 3.299-24.592 14.929-29.432 16.941a2313.22 2313.22 0 0 1-6.44 2.666c-38.151 15.697-85.296 13.82-123.458-4.916C47.136 307.34 13.595 222.673 43.674 144.79c12.196-31.579 30.32-55.188 56.613-73.747 4.423-3.122 20.598-12.032 26.223-14.445 21.599-9.264 43.798-13.626 65.495-13.387zm-64.147.557c1.701.455 1.453 2.849-.257 2.482-1.435-.308-1.88-1.78-.737-2.438.2-.116.648-.136.994-.044zm64.18 3.535c-28.48-1.245-64.017 9.239-88.402 26.077C80.55 89.322 65.49 107.128 52.84 133.435 20.77 200.124 38.686 277.62 96.677 323.04c15.2 11.903 38.097 23.327 54.678 27.277 76.874 18.312 150.24-19.219 181.363-92.78 30.76-72.697-6.18-161.668-81.696-196.773-13.699-6.369-29.509-10.666-45.965-12.493-5.14-.571-6.863-.7-13.02-.968zm-87.129 3.41c.178-.111.41-.12.645.006.194.104.245.48.112.84-.27.727-1.088.54-1.064-.243.008-.279.13-.492.307-.603zm84.594.947c8.154.131 12.766.696 10.26 1.256-1.819.406-7.83.85-12.211.903-38.039.46-72.503 14.459-99.32 40.34-5.006 4.831-7.212 6.397-7.737 5.49-.546-.942 10.37-11.457 18.266-17.596 4.601-3.578 15.203-10.499 18.928-12.357 1.04-.52 3.588-1.807 5.66-2.86 19.909-10.104 43.608-15.541 66.154-15.176zm86.216 1.08c.23-.133.733-.123 1.12.019.788.291.81 1.524.032 1.97-.777.448-1.837-.186-1.696-1.013.07-.404.314-.844.544-.976zm-160.701 1.113c.43-.067.898.037 1.146.352.701.89.213 2.12-.774 1.953-.775-.133-1.465-1.001-1.296-1.631.1-.369.493-.606.924-.674zm-21.248.176c.267-.122.589-.122.812.07.559.48.625 1.295.13 1.58-.491.283-1.45-.376-1.432-.984.01-.298.223-.543.49-.666zm121.72.39c2.188.17 7.457 1.197 12.097 2.437C273.77 69.19 314 106.84 330.49 153.153c8.24 23.146 10.542 43.409 7.646 67.347-.976 8.07-1.906 11.563-2.775 10.426-.833-1.091-.872-2.75-.182-7.72 5.726-41.279-4.698-78.758-31.356-112.734-6.055-7.719-7.409-9.176-16.906-18.211-15.697-14.935-37.015-26.954-58.388-32.919-6.351-1.773-13.783-4.301-14.062-4.782-.092-.159.294-.197 1.024-.14zm-113.982 2.322c.397-.133.824-.155 1.024.023.504.448-.003 1.935-.697 2.044-.621.098-1.335-.775-1.162-1.42.073-.27.439-.514.835-.647zm-29.533 4.555c.174 0 .298.047.357.15.186.32-2.686 3.711-9.217 10.883-10.492 11.522-14.818 16.716-18.992 22.79-3.034 4.417-3.232 5.038-3.708 11.692-.412 5.781-1.856 9.697-6.273 17.008-4.877 8.07-7.445 13.307-10.614 21.648-5.918 15.579-6.767 18.92-6.31 24.833.198 2.543.144 5.753-.12 7.135-1.743 9.12-2.016 14.258-1.362 25.562.557 9.61.538 12.04-.11 13.821-.834 2.297-1.21 1.347-2.217-5.588-1.685-11.594-1.659-21.068.078-28.155.934-3.807.9-4.994-.215-7.69-1.104-2.67-1.153-7.65-.144-14.933 2.27-16.383 10.008-33.047 21.208-45.666l3.043-3.432.344-3.031c.189-1.668.415-4.098.501-5.399.125-1.883.469-2.816 1.684-4.572 3.772-5.448 7.82-11.062 10.041-13.92 1.328-1.708 3.268-4.215 4.313-5.57 1.045-1.354 3.694-4.53 5.888-7.06 2.193-2.528 4.628-5.389 5.411-6.353 1.497-1.847 5.195-4.154 6.414-4.153zM283.867 62c1.232.108 2.248 1.596 1.92 2.815-.465 1.73-2.746 1.715-3.752-.023-.96-1.657-.103-2.96 1.832-2.792zM86.69 64.325c1.912.511 2.903 4.025 1.382 4.9-.896.516-3.123-.163-3.677-1.12-1.168-2.016.236-4.33 2.295-3.78zm69.103.17c.62.1 1.099.557 1.25 1.247l1.81 8.271c1.04-2.023 2.895-3.549 5.323-4.076 4.488-.976 8.666 1.934 9.725 6.774 1.059 4.84-1.795 9.313-6.621 10.362-4.796 1.041-9.226-1.848-10.316-6.681l-3.057-13.969c-.201-.92.305-1.704 1.227-1.904.23-.05.452-.057.659-.023zm130.693 1.964c.189-.109.474-.055.79.2a.61.61 0 0 1 .095.884c-.506.622-.978.493-1.104-.303-.064-.4.03-.672.219-.78zm-90.756.735c.197.012.41.064.64.153.919.36 1.215 1.043.823 1.96l-9.225 21.746c-.24.632-.673.985-1.207.995-.22.004-.473-.054-.759-.174-.888-.391-1.186-1.076-.793-1.961l3.015-7.112-7.326-13.255c-.423-.776-.062-1.598.718-1.958.78-.359 1.573-.06 1.965.716l5.968 11.305 4.852-11.473c.295-.664.739-.978 1.33-.942zm100.968 2.153c.492-.04 1.01.27 1.3.946.58 1.352-.07 2.318-1.37 2.04-1.297-.28-1.438-.518-1.082-1.841.192-.716.66-1.105 1.152-1.145zm15.21 2.995c.305-.115.837-.047 1.58.151 1.118.299 1.509.767 7.365 8.783 6.4 8.76 10.002 15.19 13.607 24.291 3.86 9.745 6.014 13.901 9.645 18.612 3.26 4.227 4.16 5.637 3.466 5.421-1.203-.373-4.642-4.113-7.946-8.633-3.833-5.247-4.802-7.01-9.468-17.218-3.128-6.843-8.441-15.705-14.381-23.99-3.642-5.08-4.78-7.072-3.868-7.417zm-146.593.352a5.802 5.802 0 0 0-1.152.132c-3.105.675-4.903 3.633-4.186 6.911.717 3.278 3.595 5.252 6.7 4.578 3.104-.675 4.93-3.671 4.213-6.95-.628-2.867-2.93-4.707-5.575-4.67zM72.1 74.868c2.492-.4 4.801 3.056 3.122 4.676-2.265 2.188-5.967.146-5.162-2.848.386-1.435.556-1.588 2.04-1.828zm56.023 9.462c2.513.21 4.783 1.801 6.364 4.467.417.701.19 1.49-.541 1.921l-10.291 6.063c1.88 2.244 4.963 2.758 7.698 1.146 1.11-.654 2.122-1.905 2.533-2.876.302-.724 1.005-1.138 1.69-1.032.943.173 1.403.886 1.08 1.696-.643 1.69-2.274 3.56-3.926 4.534-4.523 2.665-9.561 1.444-12.155-2.928-2.61-4.4-1.416-9.29 2.863-11.812 1.584-.933 3.178-1.305 4.685-1.179zm-.597 2.77c-.88-.038-1.797.192-2.711.73-2.681 1.58-3.4 4.187-2.414 6.775l9.02-5.313c-1.064-1.33-2.428-2.13-3.895-2.193zm142.778 2.606c.31-.019.648.007.937.084 1.969.526 2.552 2.952.933 3.883-.985.567-3.078.073-3.614-.852-.392-.676.207-2.491.966-2.928.183-.105.467-.169.778-.187zM61.686 91.155c.437-.078.923.098 1.267.56.817 1.096.111 2.405-1.12 2.077-.99-.266-1.355-.811-1.12-1.682.147-.55.536-.878.973-.955zm247.641.233c.779.209 1.57 1.507 1.264 2.073-.347.644-1.942.97-2.508.514-1.218-.983-.254-2.986 1.244-2.587zm-208.12 1.106c.4.016.794.2 1.114.546l9.728 10.508c3.347 3.663 3.177 8.938-.43 12.254-3.631 3.338-8.943 3.102-12.313-.54-3.37-3.641-3.365-8.723.011-11.827a7.772 7.772 0 0 1 6.405-2.005l-5.76-6.222c-.64-.692-.601-1.622.093-2.26.347-.32.752-.47 1.152-.454zm175.432 3.636c.757.28 1.037 1.448.43 1.797-.627.361-1.801-.18-1.913-.882-.121-.764.632-1.229 1.483-.915zm-83.977.462c44.861 1.103 87.419 29.725 103.256 74.904 1.395 3.982 3.142 13.463 3.76 20.416 2.471 27.794-8.346 58.15-27.01 75.797-2.255 2.131-5.685 5.615-7.624 7.741-19.063 20.912-43.701 32.86-72.619 35.212-8.045.654-7.369.092 2.681-2.23 26.675-6.16 47.999-16.407 67.227-32.306 13.394-11.076 22.231-25.827 28.833-48.126l1.783-6.022-1.332-1.41c-4.948-5.241-14.82-17.007-18.863-22.484-2.24-3.035-2.56-3.662-4.655-9.176-2.389-6.285-4.598-10.398-4.293-7.992.593 4.683.55 14.062-.071 15.735-.55 1.477-.735.458-.722-3.96.006-2.502-.061-4.677-.152-4.834-.091-.157-.161-.946-.154-1.755.017-1.891-1.2-7.635-2.947-13.909-2.74-9.834-13.044-27.86-15.977-27.947-1.13-.033-3.506-2.211-5.235-4.798-1.65-2.47-1.704-2.612-.783-2.11 1.479.805.698-.338-1.114-1.631-.822-.587-1.684-1.384-1.913-1.77-.721-1.217-6.77-5.582-10.953-7.904a489.155 489.155 0 0 1-5.803-3.267c-.98-.57-2.768-1.379-3.973-1.799-1.204-.419-2.47-1.017-2.811-1.328-1.71-1.556-17.27-4.621-24.455-4.817-32.91-.899-65.916 22.302-74.79 52.573-1.882 6.415-1.51 7.137 1.542 2.997 2.398-3.252 4.324-4.25 3.662-1.894-.42 1.493-.706 3.58-.743 5.415-.045 2.19-3.05 7.735-3.641 6.716-.082-.142.265-1.78.774-3.638 1.439-5.259.228-5.818-2.5-1.152-5.16 8.826-4.088 31.73 2.104 44.914l.981 2.086-.242-2.844c-.133-1.564-.036-2.962.214-3.106.658-.38.71-.207 1.755 5.91 1.692 9.911 8.298 19.637 18.801 27.68 6.696 5.129 6.602 5.047 5.413 4.724-1.678-.455-6.481-3.82-10.22-7.156-4.343-3.879-4.732-4.001-2.953-.93 5.427 9.367 19.123 22.17 29.574 27.648 1.792.939 2.389 1.636 1.231 1.44-4.34-.739-15.74-9.036-23.014-16.748-5.354-5.677-5.36-5.669-1.878 1.694 3.636 7.69 10.845 27.709 11.93 33.13.196.982 1.083 3.42 1.97 5.419 2.432 5.474 2.226 5.825-2.125 3.632-1.3-.656-3.84-1.933-5.644-2.84-28.69-14.419-46.884-39.01-53.639-72.492-10.259-50.843 16.547-103.458 62.632-122.932 14.56-6.154 29.77-8.844 44.725-8.476zm155.053 1.911c-.917.046-1.784.423-1.966 1.099-.208.77.681 2.372 1.648 2.97 1.513.936 3.524-1.543 2.577-3.179-.376-.648-1.341-.935-2.258-.89zM53.087 100.15c.27-.06.553-.06.847.02 1.206.321 1.455 1.026.983 2.782-.462 1.715-1.803 2.639-2.95 2.032-1.878-.994-.765-4.415 1.12-4.834zm270.817 3.462c.19.041.372.128.522.264.776.706.501 2.02-.453 2.17-.67.106-1.628-1.034-1.444-1.718.149-.552.804-.838 1.375-.716zm-218.144.018c-1.443-.097-2.894.382-4.061 1.456-2.336 2.147-2.41 5.627-.127 8.093 2.282 2.466 5.79 2.697 8.126.55 2.336-2.148 2.365-5.63.083-8.096-1.141-1.233-2.578-1.907-4.021-2.003zm163.01 1.973c1.374.12 1.898 1.12 1.253 2.394-.936 1.851-3.353.75-2.905-1.325.243-1.121.34-1.185 1.651-1.07zm9.908 1.098c5.865-.571 7.696 8.643 1.865 9.389-3.921.502-7.213-4.47-5.072-7.663.986-1.469 1.075-1.518 3.207-1.726zm16.29 3.085c2.35-.225 3.873 2.275 2.84 4.662-.72 1.662-2.429 1.753-3.925.209-1.508-1.557-1.513-3.088-.014-4.71.03-.034.526-.105 1.099-.16zm-222.838.124c.151.063.256.278.377.584.171.436-.05 1.308-.515 2.038-10.628 16.716-13.341 21.981-18.847 36.56-2.797 7.409-7.789 25.229-8.006 28.589-.065 1.01-.345 3.757-.622 6.105-.486 4.116-.994 12.1-1.15 18.083-1.44 55.017 35.933 112.59 87.191 134.318 2.715 1.15 6.139 2.69 7.61 3.423 1.472.734 4.712 1.853 7.201 2.488 2.49.634 7.06 2.08 10.159 3.213l6.536 2.394c1.86.682-3.386.005-8.503-1.096-39.741-8.554-81.154-43.165-99.086-82.813C32.96 216.223 38.223 157.76 67.86 115.155c2.95-4.242 3.818-5.432 4.27-5.246zm254.653 7.248c.44-.145.94.004 1.313.505.715.959.37 2.138-.693 2.371-1.101.241-1.832-.503-1.59-1.62.145-.673.529-1.111.97-1.256zm-155.085 2.197c.618.158-.034.842-1.759 1.607a54.173 54.173 0 0 0-4.142 2.1c-1.431.824-2.003.999-2.078.641-.216-1.053 4.358-3.901 6.93-4.316.496-.08.843-.085 1.05-.032zm-83.645 1.674c1.666.043 3.361.575 4.899 1.625l5.76 3.99c.75.52.923 1.48.402 2.226a1.575 1.575 0 0 1-2.233.4l-.957-.662a7.706 7.706 0 0 1-1.113 6.597c-2.622 3.759-7.673 4.462-11.754 1.634-4.082-2.827-5.045-8.037-2.226-12.08 1.75-2.51 4.446-3.8 7.222-3.73zm115.016 2.312c2.373-.228 1.548.588-3.443 3.397-6.084 3.427-5.75 3.278-6.081 2.706-.476-.822 7.453-5.904 9.524-6.103zm-11.846.247c.21-.04.39-.031.523.04.652.35.481.577-2.554 3.405-1.56 1.451-3.03 2.9-3.272 3.22-.73.965-.888-.001-.235-1.427.983-2.146 4.067-4.953 5.538-5.238zm-103.31.438a5.4 5.4 0 0 0-4.757 2.343c-1.813 2.6-1.103 6.033 1.662 7.948 2.764 1.915 6.213 1.364 8.026-1.237 1.814-2.6 1.111-5.989-1.653-7.903-1.037-.718-2.17-1.096-3.278-1.15zm-50.728 3.292c.22-.048.467-.043.728.027 1.477.394 1.721 2.708.336 3.18-1.037.354-1.954-.342-2.074-1.57-.083-.86.349-1.492 1.01-1.637zm143.01 1.338c.144.026.301.11.473.249.88.71.108 2.695-.94 2.415-.776-.208-.821-.313-.549-1.326.265-.986.584-1.418 1.016-1.338zm111.602 1.276c1.037.185 2.034.768 3.142 1.84 2.32 2.244 2.775 2.309 4.123.602 1.795-2.274 4.312-1.656 5.451 1.336 2.343 6.151-6.147 12.936-11.802 9.433-6.083-3.77-6.809-14.254-.914-13.21zm-83.984.454c1.869-.11 3.319.32 3.153.936-.046.171-.875.346-1.844.388-1.351.058-4.74 1.03-7.573 2.174-.05.02-.232-.207-.406-.507-.46-.795 4.1-2.84 6.67-2.991zm-53.036 2.266c.27-.003.586.162.781.5.194.334.214.76.048.947-.354.398-1.352-.302-1.332-.934.01-.34.233-.51.503-.513zm199.026 1.82c.74.024.81.681 1.55 4.01.44 1.977 1.13 4.563 1.536 5.746 2.643 7.728 5.039 19.049 4.314 20.391-.357.662-.57.096-1.595-4.258-1.185-5.02-2.97-10.59-5.773-17.99-2.689-7.1-2.81-7.442-2.661-7.528.065-.038.793-.155 1.615-.26.446-.057.767-.12 1.014-.111zm-176.753 3.59a.77.77 0 0 1 .409.362c.205.354.268.836.14 1.073-.327.606-1.31.266-1.43-.495-.108-.68.421-1.098.88-.94zm-19.518 1.669c.379.1.499.325.39.729-.237.882-1.212.732-1.058-.163.084-.494.288-.668.668-.566zm-94.231 1.868c.214-.01.437.024.659.105l19.995 7.31a1.637 1.637 0 0 1 .972 2.092 1.626 1.626 0 0 1-2.099.97l-14.678-5.368 11.938 12.448c.383.507.497 1.016.28 1.605-.238.648-.707 1.012-1.436 1.08l-16.737 1.862 14.413 5.27a1.618 1.618 0 0 1 .974 2.092 1.627 1.627 0 0 1-2.1.968l-19.997-7.31a1.598 1.598 0 0 1-.971-2.092c.217-.589.644-.934 1.325-1.053l20.792-2.315-14.442-14.933c-.442-.53-.536-1.098-.33-1.658.236-.64.8-1.046 1.442-1.073zm134.36 1.096c.17.191-.135.8-1.01 1.723-3.63 3.833-5.833 10.161-4.404 12.657 1.29 2.252.33 3.552-2.63 3.566-5.672.027-6.942-4.446-3.093-10.884 2.078-3.478 4.9-6.368 5.389-5.523.095.164-.258 1.052-.782 1.971-1.082 1.898-1.976 5.519-1.546 6.262.428.738.61.487 1.444-1.983 1.03-3.05 2.711-5.519 4.776-7.008 1.034-.746 1.683-.972 1.855-.78zm-164.497.417a.745.745 0 0 1 .874.358c.362.625-.386 1.511-1.11 1.317-.412-.11-.537-.356-.447-.88a.977.977 0 0 1 .683-.795zm139.611.071c.093-.065.204-.033.334.117.252.29.432 1.008.398 1.596-.034.589.19 2.24.497 3.669.603 2.806.322 3.598-.664 1.868-.935-1.638-1.21-6.793-.565-7.25zm61.466 2.075c.373.159-.081.782-1.465 1.825-1.98 1.495-1.77 1.641 1.323.92 3.354-.785 8.053 1.046 9.617 3.746l.568.982-2.598-.754c-3-.868-3.965-.645-7.827 1.816-3.161 2.016-4.118 3.747-4.613 8.354-1.27 11.822-5.808 15.285-17.618 13.442-1.877-.294-5.197-.411-7.378-.264-2.181.149-4.006.076-4.054-.159-.265-1.29 3.111-2.975 5.573-2.78 1.975.156 1.715-.504-1.254-3.181-3.443-3.106-4.716-8.554-3.28-14.045 1.423-5.443 5.217-8.246 11.733-8.67 1.653-.107 4.596.086 6.539.427 4.648.82 8.122.6 11.23-.704 1.93-.81 3.13-1.114 3.504-.955zm112.288.082c.241.065.514.284.714.63.205.354.15.772-.125.93-.494.284-1.288-.616-1.113-1.261.072-.273.282-.364.524-.299zm-208.503.362c.331-.114.843-.08 1.362.16 1.29.599 1.02 1.525-.358 1.23-.564-.122-1.14-.422-1.282-.667-.203-.35-.053-.61.278-.723zm10.285.88c.156.066.358.213.597.452.946.942 1.737 2.424 1.4 2.618-.423.243-1.202-.462-1.964-1.778-.556-.96-.5-1.49-.033-1.292zm63.826 2.017c-2.113.242-3.69.787-4.768 1.65-1.809 1.448-3.041 2.986-3.68 4.591-.916 2.305-.567 2.249 1.168-.186 1.655-2.32 5.526-5.095 7.68-5.504 1.973-.375 1.673-.788-.4-.55zm-34.044.293c.11.001.217.093.314.293.458.933-.743 11.42-1.236 10.793-.285-.362-.586-1.855-.668-3.318-.189-3.338.813-7.778 1.59-7.768zm190.759 3.246c-.355.038-.573.51-.715 1.492-.099.689.17 2.764.6 4.613.43 1.847 1.238 7.579 1.797 12.736 1.549 14.277 1.657 14.972 2.274 14.617 1.49-.857-1.876-32.455-3.553-33.355-.15-.08-.285-.116-.403-.103zm-59.782.199c1.872.12 3.458 2.528 2.78 4.216-1.168 2.91-5.08 2.34-5.495-.802-.237-1.799 1.13-3.518 2.715-3.414zm-95.675 1.165c-1.166.058-1.965.754-2.312 2.042-.453 1.683.51 3.417 2.102 3.788 5.199 1.208 6.648-4.296 1.494-5.673a4.209 4.209 0 0 0-1.284-.157zm104.756 3.713c.364-.064.72-.065 1.027.017 1.566.418 1.911 1.426 1.277 3.736-.314 1.143-.42 2.337-.236 2.654.97 1.674-.238 3.623-1.63 2.632-.919-.653-3.03-6.129-2.825-7.326.132-.768 1.296-1.522 2.387-1.713zm-287.715.721c.195.042.404.164.597.385.288.331.205.62-.26.888-.38.219-.806.199-.946-.044-.441-.762.023-1.354.609-1.229zm139.294.6c.123-.067.33-.056.618.02.688.184.977.59 1.661 2.326 1.04 2.635.453 2.906-1.112.513-1.162-1.78-1.538-2.66-1.167-2.86zm-6.2.585c.404.174 1.023.74 1.716 1.64 1.627 2.112 2.492 4.189 1.805 4.331-.515.106-3.677-4.093-3.956-5.253-.16-.672.03-.892.434-.718zm193.495 1.202c.328.161.762.866 1.317 2.105 1.35 3.017 1.438 4.218.382 5.274-1.927 1.928-2.528 1.064-2.51-3.607.011-2.798.263-4.04.81-3.772zm-216.015.184c.376.138.676.464.669.723-.02.647-1.613.678-1.984.038-.362-.624.435-1.086 1.315-.761zm14.366.884c.31-.021.823.108 1.448.392 2.676 1.218 8.336 6.83 6.352 6.296-.562-.15-7.746-5.676-8.04-6.183-.182-.314-.071-.484.24-.505zm-25.3 1.458c2.165.159 3.367.827 2.783 1.546-.369.454-4.888-.4-5.23-.987-.25-.434.817-.677 2.447-.559zm96.918.22c-.108.185-.278.765-.536 1.786-.253 1.007-.937 2.826-1.517 4.042-1.125 2.355-1.17 3.085-.13 2.08 1.404-1.36 2.41-4.487 2.35-7.316-.012-.564-.059-.776-.167-.592zm-201.903 4.029c1.03.38 1.207 1.837.27 2.212-.796.318-1.629-.303-1.794-1.34-.12-.75.654-1.193 1.524-.872zm119.48 2.834c8.46-.648 14.699 4.638 11.31 9.586-.99 1.445-1.709 1.126-3.508-1.56-2.002-2.984-4.34-4.516-8.432-5.525-4.82-1.189-4.59-2.101.63-2.501zm168.566 1.89c2.752-.107 3.885 3.444 1.53 4.799-2.056 1.184-4.205-.658-3.561-3.053.387-1.444.677-1.692 2.031-1.745zm-62.028 3.838c1.08.261.105.77-4.175 2.18-8.09 2.665-17.828 7.59-18.271 9.241-.233.868 1.212 1.587 2.417 1.204 6.788-2.156 21.525-3.173 26.09-1.8 1.886.566 1.486.63-6.61 1.044-12.105.62-20.968 2.817-11.21 2.78 5.322-.019 14.552.927 15.354 1.574.7.565.726.564-4.688.34-5.324-.22-9.833-.05-13.244.5-3.893.628-3.51.872 2.5 1.6 5.698.69 13.71 3.138 16.985 5.19 1.802 1.129-.113.976-3.896-.31-5.41-1.84-14.1-3.43-17.984-3.29-1.446.052-1.184.21 3.566 2.12 2.393.964 4.833 2.057 5.423 2.435.591.377 2.472 1.39 4.179 2.252 2.846 1.437 6.134 3.97 5.966 4.597-.085.315.187.426-3.416-1.385-5.772-2.9-13.993-4.877-15.846-3.81-1.168.672-1.283.505 1.847 2.706 5.026 3.534 9.559 8.636 8.628 9.71-.204.236-.504.085-.78-.39-1.21-2.088-6.125-6.116-9.307-7.627-2.576-1.223-2.535-.817.19 1.89 2.352 2.334 3.896 4.862 3.347 5.474-.193.214-.876-.276-1.761-1.265-1.92-2.145-2.3-2.053-1.772.431.785 3.694-.297 5.282-1.324 1.94-1.139-3.71-3.386-6.659-4.305-5.653-.315.346-.934.94-1.377 1.319-.441.38-1.446 1.919-2.23 3.422-8.15 15.602-19.795 22.348-38.698 22.417-7.144.027-7.691.303-6.09 3.068.723 1.248.83 3.104.2 3.466-.959.551-1.936-.756-2.826-3.782-.76-2.58-.828-2.698-1.644-2.786-2.78-.299-3.78 8.563-1.767 15.647.894 3.145.94 3.589.365 3.435-1.75-.467-3.804-10.523-3.347-16.384.168-2.144-.202-2.643-1.43-1.936-1.091.627-3.43 8.669-3.895 13.379-.332 3.38-.641 4.429-1.083 3.667-.808-1.396-.206-9.82 1.162-16.26.513-2.414.495-2.545-.355-2.637-1.99-.214-3.877 3.312-6.462 12.063-.685 2.32-1.381 4.184-1.548 4.14-.94-.252 1.047-9.556 3.146-14.73.844-2.078 1.37-3.867 1.171-3.974-1.406-.755-7.278 6.393-10.99 13.377-1.947 3.668-2.37 3.343-1.02-.787 1.015-3.101 3.294-7.15 6.568-11.66 5.592-7.707.92-4.327-6.586 4.763-1.552 1.878-3.036 3.458-3.301 3.512-1.177.24 4.868-8.37 8.695-12.38 1.982-2.08 2.656-3.427 1.726-3.454-1.335-.04-8.423 6.051-12.29 10.562-1.014 1.184-1.934 2.129-2.043 2.099-1.341-.357 4.55-8.098 8.96-11.773 1.402-1.168 2.582-2.247 2.623-2.398.142-.526-2.059.957-4.966 3.347-3.651 3.001-3.964 3.207-4.25 2.826-.426-.572 3.262-3.886 7.822-7.027l4.526-3.117.063-2.274c.122-4.373 2.394-11.632 5.022-16.045.64-1.076 1.406-1.818 1.575-1.527.04.07-.508 1.795-1.218 3.833-3.64 10.456-3.83 17.86-.41 15.938.551-.31 1.312-.546 1.69-.524 1.165.066.315 1.21-1.453 1.955-1.55.655-2.592 1.778-2.23 2.404.125.215.867-.156 2.056-1.031 1.557-1.148 1.943-1.303 2.379-.952.286.232.776.275 1.087.096.311-.18.97-.283 1.465-.23 1.227.133 1.017 1.453-.357 2.243-.544.313-1.197 1.087-1.45 1.719-.254.631-.649 1.257-.876 1.387-.535.308-.775 1.703-.313 1.826.195.052 1.163-.707 2.15-1.69 2.79-2.77 4.672-2.425 2.507.46-.636.848-.998 1.721-.832 2.01.37.636 1.35.1 1.878-1.03.547-1.168 4.233-3.304 5.132-2.972.984.362.994 1.4.019 1.961-.777.447-.273 1.734.831 2.125.7.247 2.535-3.232 2.197-4.165-.42-1.163.37-2.061 1.857-2.109 1.325-.042 1.561.788.586 2.063-.475.621-.881 1.704-.905 2.406-.023.702-.197 1.686-.386 2.186-.46 1.223.306 1.543 1.73.723 1.017-.585 1.09-.742.57-1.215-.388-.353-.462-.708-.21-1.017.504-.621 2.12-.664 2.467-.065.319.551 7.121-3.574 9.682-5.871 7.322-6.566 4.462-11.756-6.633-12.04-7.528-.191-11.968-3.301-11.018-7.716 1.802-8.38 19.888-17.553 26.423-13.402 3.226 2.05 2.875 8.951-.669 13.165-2.593 3.085-3.378 7.864-1.75 10.673 1.912 3.302 9.611 2.038 16.535-2.714l2.646-1.816-.855-.991c-.47-.546-.79-1.027-.712-1.072.592-.34 3.554-.421 4.522-.122 1.28.394 3.734-.57 2.769-1.086-.808-.433-3.323-.809-4.735-.708-.764.055-1.539-.184-1.838-.564-.634-.804 2.124-3.169 3.758-3.221.715-.024 1.071-.267 1.605-1.097.651-1.012.763-1.053 2.182-.802 1.721.305 3.505-.367 3.2-1.207-.108-.302-1.03-.617-2.046-.697-3.34-.264-3.173-2.149.265-3.01 2.481-.622 2.518-1.172.069-1.045-3.308.171-4.33-2.066-1.062-2.323 1.786-.14 1.972-.452.847-1.415-.673-.575-1.283-.596-3.282-.114-3.134.754-4.195-.377-1.659-1.769 2.296-1.26-.376-3.372-6.957-5.502-3.639-1.177-4.02-1.387-2.917-1.592 1.59-.297 5.919.576 8.53 1.718 3.162 1.384 3.045 1.402 7.863-1.186 2.976-1.598 3.84-1.91 5.277-1.897.995.01 3.61-.621 6.214-1.502 4.767-1.613 9.657-2.859 10.456-2.666zm-246.426.98c-.095.037-.216.148-.367.325-.186.218-.286 1.387-.219 2.599.134 2.453.555 1.894.8-1.064.118-1.416.071-1.97-.214-1.86zm351.76 5.113c.182-.105.806-.065 1.383.09 1.263.337 1.567.794 1.448 2.16-.156 1.772-2.452 2.231-3.355.673-.389-.672-.045-2.595.524-2.923zm-125.54.507c.366-.315-.007-.186-.83.287-.824.475-1.125.733-.667.575a5.486 5.486 0 0 0 1.498-.862zm-226.783.448c-.083.055-.15.195-.213.429-.096.356-.043.872.117 1.148.252.435.322.388.519-.342.125-.465.072-.982-.117-1.149-.124-.11-.223-.14-.306-.086zm135.277 1.443c7.515-.659 14.18 4.94 16.709 14.52 1.339 5.073-1.659 10.826-7.668 14.715-4.585 2.966-6.645 2.863-15.042-.746-6.801-2.925-10.392-2.44-13.603 1.839-1.57 2.092-2.11 1.614-1.378-1.216.605-2.342.553-2.417-.966-1.404-3.016 2.008-.146-3.262 3.706-6.81 4.525-4.168 7.66-8.687 8.693-12.527.179-.663-1.064 1.186-1.778 2.647-1.446 2.95-3.288 5.456-4.891 6.65-2.134 1.588-2.297.706-.321-1.741.809-1.001 2.021-3.019 2.692-4.484 2.75-5.996 5.972-9.276 10.585-10.771a14.74 14.74 0 0 1 3.262-.672zm-28.454 1.516c.156-.076.306-.012.441.222.139.24.042 1.14-.215 2.002-.257.861-.686 3.432-.954 5.712-.493 4.204-.914 5.363-1.235 3.393-.557-3.442.87-10.798 1.963-11.33zm28.395.76c-2.574.127-5.168 1.098-7.003 2.706-.885.775-2.144 2.425-2.019 2.645.023.039 1.55-.864 3.397-2.008l3.357-2.08 3.406-.155c3.983-.184 4.311-.404 1.4-.946a10.982 10.982 0 0 0-2.538-.162zm75.13.591c.192-.12.466-.093.864.054.453.167.576.395.455.844-.356 1.326-1.928 1.263-1.7-.07.077-.441.189-.708.381-.828zm3.407 2.842c.195.06.36.197.482.406.439.758-.471 1.757-1.231 1.35-.795-.425-.748-1.369.086-1.702.243-.098.467-.114.663-.054zm-19.948 1.326c-.193-.048-.59-.038-1.193.03-3.958.454-9.724 3.207-13.549 6.47-4.476 3.816-4.265 4.927.273 1.437 3.422-2.634 6.489-4.338 10.711-5.95 3.076-1.175 4.336-1.843 3.758-1.987zm15.018.176a.835.835 0 0 1 .511.398c.411.71-.39 1.693-1.202 1.476-.267-.072-.534-.443-.595-.827-.117-.733.674-1.213 1.286-1.047zm-44.131.664c.211.114.083.475-.286.802a336.77 336.77 0 0 0-2.266 2.052c-1.796 1.638-1.901 1.693-2.212 1.156-.507-.876 3.818-4.516 4.764-4.01zm160.941.91c.245-.002.532.044.872.135 2.755.736 2.363 4.674-.442 4.429-1.335-.117-2.131-1.475-1.768-3.018.256-1.088.605-1.541 1.338-1.547zm-108.946.736a1.46 1.46 0 0 1 .655.086c1.11.41-.09 2.48-1.256 2.169-.694-.185-.82-.357-.713-.984.123-.714.675-1.207 1.314-1.27zm-86.58.678c-.315.13-.548.479-.965 1.156-1.225 1.992-.407 4.212 1.663 4.508 3.754.539 4.452-4.521.76-5.507-.744-.2-1.141-.287-1.457-.157zm-109.654.495c.181.07.346.252.522.555.352.608.304.931-.184 1.212-.488.28-.795.161-1.147-.446-.351-.608-.301-.93.187-1.212.244-.14.44-.18.622-.109zm190.32 2.186c.368-.122.78.002 1.107.417.666.845-.314 2.036-1.428 1.74-.672-.18-.737-.315-.528-1.091.154-.575.48-.944.848-1.066zm6.196.712a.827.827 0 0 1 .496.394c.257.445.146.848-.338 1.227-.984.767-1.857.503-1.683-.51.138-.808.932-1.28 1.525-1.111zm-3.326 3.846a.58.58 0 0 1 .438.278c.851 1.47-.16 2.808-1.496 1.98-.534-.33-.662-.636-.507-1.215.178-.662 1.005-1.125 1.565-1.043zm-6.594.353c1.011.374.633 1.817-.543 2.074-.794.174-1.614-.6-1.416-1.338.167-.617 1.213-1.011 1.96-.736zm147.148 2.424c.232.006.467.066.676.196 1.083.669 1.081 1.69-.004 2.156-.942.407-1.764-.123-1.943-1.251-.1-.633.574-1.116 1.271-1.1zm-35.308.22c5.246-.38 8.253 5.76 4.54 9.27-3.867 3.657-10.466.262-9.498-4.885.53-2.818 2.066-4.174 4.958-4.385zm-109.52.226c.284-.156.659-.16 1.098.002.715.263.836 1.51.183 1.885-.672.387-1.953-.297-1.836-.98.076-.443.27-.751.555-.907zm-77.708 1.388c-.16-.061-.106.11.102.492.647 1.187 2.377 2.51 3.535 2.704.84.14.838.115.012-.398-.484-.301-1.594-1.153-2.468-1.895-.647-.55-1.02-.842-1.18-.903zm135.289.367c.17-.097.402-.016.516.182.532.916-1.613 8.886-2.338 8.692-.347-.092 1.409-8.636 1.822-8.874zm-249.944.402c.611.163.796.4.772.997-.04 1.057-1.157 1.643-1.774.932-.742-.854-.04-2.207 1.002-1.929zm109.569 2.084c-.134.04-.045.16.336.373 8.023 4.51 13.57 5.246 16.986 2.255 1.083-.948.573-1.376-.737-.622-2.69 1.547-5.97 1.371-11.31-.609-2.481-.92-4.876-1.517-5.275-1.397zm147.313 2.082c.068-.37 1.695 1.764 4.244 5.818 3.459 5.504 4.765 8.284 4.074 8.681-.633.365-1.899-1.36-3.205-4.37-.628-1.447-2.164-4.431-3.412-6.63-1.221-2.153-1.742-3.276-1.701-3.499zm-222.321 2.278c.107-.11.215-.05.338.162.354.611-.206 2.656-.565 2.063-.184-.302-.234-.92-.113-1.372.126-.466.233-.744.34-.853zm118.736 1.69c.827.304 1.085 1.37.422 1.75-.665.384-1.843-.13-1.958-.855-.125-.782.638-1.227 1.536-.895zm-9.713.024c.192.046.367.14.48.27.486.56-.051 1.369-.895 1.344-.819-.025-.95-1.324-.16-1.596.176-.061.384-.063.575-.018zm55.233.85c-.182-.086-.966.346-2.504 1.223-1.42.81-4.813 2.237-7.535 3.171-5.079 1.742-6.244 2.338-10.306 5.263a261.15 261.15 0 0 1-5.63 3.896c-3.777 2.538-3.795 2.887-.131 2.615 7.72-.577 20.153-7.686 24.992-14.289.873-1.191 1.295-1.793 1.114-1.879zm-31.88 1.227c.228.061.434.204.608.425.686.872-.017 1.814-1.13 1.517-1.115-.298-1.252-1.463-.22-1.877.262-.105.513-.126.742-.065zm-18.45.096c.214-.051.418-.047.58.04.574.309.299 1.578-.434 2-.746.429-1.296.167-1.431-.684-.086-.539.642-1.204 1.285-1.356zm-96.816.243c.302-.013.61.035.87.172.5.266.643.532.522.984-.19.706-1.223.67-2.443-.085-.711-.44.143-1.033 1.05-1.071zm278.23.03c.139-.08.578-.025.976.123 1.192.44.615 2.105-.614 1.776-.858-.23-1.095-1.476-.361-1.899zm-32.42.609c.6.002 1.218.06 1.848.178 5.005.96 7.88 5.151 6.923 10.108-.963 4.988-5.194 7.817-10.199 6.857-5.036-.965-7.91-5.156-6.947-10.145.832-4.31 4.174-7.016 8.374-6.998zm-136.835.423c.203.076.376.254.543.543.565.974.205 1.462-.981 1.334-1.19-.128-1.391-1.368-.294-1.808.293-.118.528-.145.732-.07zm47.716.132c.168.012.309.082.38.206.774 1.336-.9 9.64-2.08 10.32-.608.349-.548-2.204.132-5.654.4-2.04.643-3.854.541-4.03-.102-.177.114-.494.48-.704a.98.98 0 0 1 .547-.138zm-207.427.258c.246.066.555.428.686.804.31.891-.604 1.407-1.225.693-.538-.619-.155-1.682.54-1.497zm353.903.165c-.18.103-.365.385-.535.836-.147.388-.409 2.155-.584 3.923-.175 1.77-.359 3.615-.411 4.103-.057.546.043.81.263.684.47-.27 2.092-8.766 1.778-9.307-.154-.266-.33-.343-.51-.24zm-200.072.775c.348-.096.748-.043 1.158.172 1.002.527.55 2.212-.582 2.168-1.01-.038-1.78-.917-1.417-1.619.197-.381.493-.626.84-.721zm92.564.11c.099.068.162.298.175.713.036 1.098-1.372 4.796-1.953 5.13-.25.144-.115-1.027.298-2.602.57-2.177 1.186-3.442 1.48-3.24zm50.171 1.2c-2.83-.05-5.074 1.667-5.615 4.47-.618 3.202 1.35 5.94 4.75 6.592 3.398.652 6.217-1.17 6.835-4.373.618-3.202-1.327-5.905-4.725-6.556a7.301 7.301 0 0 0-1.245-.132zm76.71.301c-.925.05-1.624.657-2.09 1.82-.625 1.557.198 3.038 1.95 3.506 3.677.982 4.79-4.09 1.14-5.188a2.94 2.94 0 0 0-1-.138zm-209.696.303c1.053.113 1.364 1.268.478 1.777-.937.54-1.814.172-1.845-.773-.03-.956.205-1.13 1.367-1.004zm-13.576.298c1.185.127 1.328 1.29.236 1.918-.989.568-1.875.034-1.694-1.02.154-.899.347-1.018 1.458-.898zm79.257.482c.115.041-.13.583-.72 1.616-7.855 13.713-31.57 33.154-47.584 39.01-12.058 4.408-29.08 7.314-35.153 6.001-2.44-.527-2.34-.555 3.28-.9 27.042-1.656 57.38-18.187 76.538-41.704 2.254-2.767 3.446-4.09 3.639-4.023zm-19.182 1.424c.145-.022.333.046.573.174.495.266.455 2.68-.073 4.427-.481 1.59-.714 1.25-.85-1.257-.13-2.408-.084-3.277.35-3.344zm-67.6 1.057c-.082-.025-.234.019-.464.15-.367.212-.828.778-1.023 1.258-.334.825-.304.829.52.086.817-.736 1.21-1.42.966-1.494zm-148.025 3.004c.144.032.305.119.488.266.597.483 1.065 1.867 4.417 13.111 1.392 4.669 3.5 11.014 4.681 14.101 2.241 5.848 2.948 8.573 1.953 7.514-.29-.31-.956-.778-1.48-1.042-1.147-.576-2.28-2.881-5.86-11.909-4.148-10.462-6.35-22.52-4.199-22.04zm157.55.653c-.442.181-1.16.983-1.432 1.72-.227.617-.212.999.033.865.49-.265 1.866-2.29 1.724-2.535-.06-.103-.177-.11-.324-.05zm-147.03 3.203c2.465.161 3.137 3.6.948 4.86-.905.52-2.812.037-3.322-.843-.814-1.406.79-4.12 2.374-4.017zm37.28 1.442c1.377.12 3.002 1.19 3.739 2.46 2.531 4.37-3.361 8.75-6.643 4.938-2.388-2.774-.458-7.692 2.904-7.398zm318.105.233c-.33.095-.604.307-.612.576-.007.211.23.513.524.672.652.35 1.566-.644 1.03-1.12-.228-.2-.612-.223-.942-.128zm8.997 2c-.565-.023-1.165.465-1.289 1.19-.163.957.676 1.607 1.479 1.145.825-.475 1.005-1.598.344-2.132a.893.893 0 0 0-.534-.203zm-129.438.591c.073.038.126.15.164.33.13.623-1.095 3.17-1.692 3.513-.847.488-.795-.337.127-2 .776-1.401 1.183-1.956 1.401-1.843zm46.425 1.13c.567-.007 1.069.32 1.305.906l2.858 7.185 9.129-3.15c.804-.275 1.61.086 1.905.928.294.842-.108 1.664-.912 1.939l-8.997 3.063.759 1.947 4.522 1.648c.857.312 1.231 1.115.918 1.969-.314.854-1.121 1.229-1.978.916l-20.18-7.354c-.857-.312-1.233-1.115-.92-1.97.313-.853 1.12-1.228 1.978-.916l12.026 4.382-3.786-9.492c-.316-.783.005-1.566.79-1.881a1.61 1.61 0 0 1 .583-.12zm-124.39 2.499c.177-.102.387.125.47.503.08.378.534 2.256 1.005 4.172.473 1.917.887 3.893.922 4.392.059.86.889 1.952 3.357 4.417l.7.7-1.305-.286c-1.788-.394-3.3-2.397-4.223-5.593-1.565-5.426-1.828-7.786-.925-8.305zm74.743 3.682c.15.002.31.091.49.25.501.443-.555 3.631-1.75 5.286-1.003 1.39-2.088 1.724-1.288.397.247-.412.784-1.896 1.192-3.296.55-1.887.908-2.645 1.356-2.637zm89.65 2.662c.193-.008.41.03.647.117.834.307 1.06 1.298.463 2.032-.613.754-1.992.097-2.026-.966-.024-.73.336-1.161.916-1.183zm-46.165 8.22c.275.01.528.113.745.308.673.606.568 1.332.017 1.963-2.59 3.172-2.692 6.564-.138 7.921l8.105 4.31c.888.472 1.138 1.208.65 2.12-.475.886-1.214 1.134-2.13.647l-12.41-6.596c-.888-.473-1.12-1.236-.646-2.12.488-.914 1.211-1.135 2.127-.648l.528.282c-.684-1.786-.586-3.901.406-5.755.888-1.66 1.92-2.463 2.746-2.432zm45.078.292c.246-.06.503-.065.749 0 .842.225 1.461 1.362 1.342 2.463-.208 1.912-3.385 1.1-3.449-.88-.024-.733.62-1.404 1.358-1.583zm-267.776.29c1.467-.055 2.968 1.482 3.93 4.384 2.245 6.776-3.848 13.337-9.687 10.432-6.84-3.404-8.895-13.172-2.696-12.805.688.04 2.112.366 3.161.721l1.909.647.902-1.516c.732-1.227 1.601-1.831 2.481-1.864zm-43.878 9.042c.308.008.41.197.31.572-.181.672-.803.591-.782-.1.008-.268.219-.48.472-.472zm288.703 1.276c.081.304-.663 2.016-2.16 5.058-18.097 36.771-57.813 67.404-99.93 77.075-16.145 3.708-37.523 4.672-50.89 2.297-6.332-1.126-6.77-1.343-2.331-1.158 1.25.053 3.625.016 5.28-.078 1.655-.096 4.461-.073 6.237.05 48.187 3.314 98.54-20.476 127.775-60.372 1.225-1.673 4.996-7.22 8.38-12.327 5.071-7.651 7.503-11.051 7.639-10.545zm-282.35 1.424c1.933-.062 3.007 3.142 1.367 4.086-1.154.664-2.758.368-3.328-.616-.954-1.647.04-3.408 1.96-3.47zm298.614 5.171a.572.572 0 0 1 .139 1.05.573.573 0 1 1-.138-1.05zm-47.067.169c2.002-.185 4.135.49 6.127 1.97.656.488.754 1.305.246 1.983l-7.147 9.55c2.602 1.348 5.645.638 7.545-1.9.77-1.03 1.22-2.575 1.223-3.629-.002-.784.487-1.437 1.16-1.602.937-.203 1.636.277 1.651 1.149.062 1.806-.717 4.16-1.864 5.693-3.141 4.198-8.262 5.008-12.348 1.971-4.11-3.055-4.903-8.026-1.932-11.997 1.467-1.96 3.337-3.004 5.339-3.188zm-259.572 1.613c.255.17 1.23 1.965 2.73 5.257.994 2.181 2.415 5.85 3.16 8.153 1.543 4.788 5.109 12.607 6.572 14.416.544.673 4.515 5.27 8.824 10.216 4.547 5.217 8.408 9.951 9.2 11.28 2.644 4.435 3.606 5.436 4.562 4.746.957-.69 1.5-.543 1.471.398-.015.516-.15.614-.67.474-1.184-.315-1.122.067.361 2.228.808 1.176 1.345 2.111 1.193 2.076-.691-.153-3.876-3.804-6.18-7.08-1.887-2.684-4.766-5.902-11.34-12.672-12.642-13.015-13.832-15.096-16.72-29.227-.45-2.198-1.159-4.793-1.577-5.768-1.377-3.21-1.842-4.666-1.586-4.497zm4.284 1.041c.234-.048.508.055.609.228.1.173.053.46-.106.639-.159.178-.433.076-.609-.228s-.129-.591.106-.639zm256.064.159c-1.488-.051-2.889.572-3.947 1.986-1.862 2.489-1.514 5.173.398 7.18l6.264-8.37c-.898-.491-1.823-.766-2.715-.796zm83.564 1.946c-.209.106-.389.374-.68.873-1.055 1.81-.473 3.773 1.104 3.722 1.934-.062 2.284-3.81.42-4.497-.4-.148-.636-.204-.844-.098zm-232.552 1.367c.132-.296.662.826 2.46 4.795 2.53 5.589 5.776 10.869 9.484 15.425 3.321 4.084 3.776 5.262 1.081 2.802-5.275-4.812-12.912-17.861-13.056-22.309-.012-.36-.013-.615.03-.713zm-57.648.86c1.24.458 2.289 2.033 2.06 3.093-.449 2.076-3.311 2.307-4.44.358-.922-1.592.77-4.044 2.38-3.45zm-40.09.96c.262-.094.617-.024 1.06.208.791.415.991 1.563.338 1.939-.764.44-2.053-.495-1.901-1.38.071-.417.24-.674.503-.767zm55.233 5.24c.216-.133.507-.097.94.063 1.505.554 1.01 2.894-.525 2.484-1.013-.27-1.186-.579-.91-1.606.136-.51.278-.81.495-.942zm170.003.378c.395 0 .79.158 1.114.479l3.214 3.182 1.884-1.89c.62-.623 1.444-.65 2.024-.075.536.53.517 1.352-.104 1.975l-1.886 1.89 5.514 5.459c1.205 1.193 2.829 1.343 3.783.386l.754-.756c.532-.533 1.423-.493 2.07.148.647.64.56 1.66-.194 2.417l-.397.402c-2.218 2.224-5.757 2.08-8.234-.373l-5.513-5.458-1.02 1.023c-.62.623-1.444.648-1.98.117-.58-.574-.56-1.394.062-2.017l1.02-1.024-3.215-3.182c-.648-.641-.651-1.571-.008-2.217a1.575 1.575 0 0 1 1.112-.486zM48.15 286.93c.816-.129 1.454.93.941 1.56-.571.703-1.56.752-1.94.097-.55-.948-.239-1.462.999-1.657zm40.616.457c.394-.093.803-.099 1.196.006.741.198 1.166.565 1.308 1.127.114.46.487 1.654.827 2.657.974 2.866.187 4.678-1.743 4.017-.893-.306-3.947-4.4-3.898-5.225.074-1.233 1.126-2.302 2.31-2.582zm175.068 4.748a2.076 2.076 0 0 1 1.4.747 2.083 2.083 0 0 1-.301 2.91 2.1 2.1 0 0 1-2.921-.3 2.082 2.082 0 0 1 .3-2.91c.439-.357.991-.501 1.522-.447zm4.044 5.443c.399.041.78.246 1.078.61l8.835 10.827c.595.73.5 1.655-.232 2.249-.733.593-1.663.498-2.259-.232l-8.833-10.824c-.595-.73-.5-1.657.232-2.25.367-.298.781-.42 1.18-.38zm60.01.38c.258-.014.536.04.826.175 1.288.599 1.45.99 1.135 2.75-.337 1.891-1.533 2.699-2.732 1.847-1.894-1.347-1.03-4.683.772-4.773zm-235.364.455c1.71.184 2.611 3.2 1.198 4.013-1.413.813-3.02-.682-2.75-2.557.21-1.457.348-1.586 1.552-1.456zm-40.56 1.494c.197.053.382.156.505.297.53.608-.165 1.624-.964 1.41-.8-.213-.89-1.438-.127-1.701.177-.061.388-.058.586-.006zm11.752 4.297c.317.041.622.27.858.677.362.626.283.896-.372 1.273-.905.52-2.094-.737-1.427-1.508.293-.338.623-.484.94-.442zm194.838 1.295c1.946.159 3.777 1.385 5.12 3.736l4.448 7.795c.467.818.218 1.716-.603 2.181-.82.466-1.72.217-2.187-.6l-4.45-7.795c-1.306-2.29-3.185-2.666-4.99-1.642-1.914 1.085-2.43 3.29-1.263 5.333l4.385 7.686c.467.818.22 1.715-.6 2.18-.82.465-1.721.218-2.188-.6l-4.449-7.794c-1.307-2.29-3.188-2.665-4.993-1.642-1.914 1.085-2.457 3.305-1.29 5.349l4.388 7.686c.466.818.219 1.714-.601 2.18-.82.465-1.723.218-2.19-.6l-6.922-12.127c-.466-.818-.22-1.717.601-2.182.82-.465 1.723-.218 2.158.546.413-1.497 1.442-2.803 2.973-3.67 1.86-1.055 3.8-1.145 5.55-.298.304-1.94 1.505-3.702 3.556-4.864 1.17-.663 2.379-.953 3.547-.858zm64.077 2.796c.217-.03.452-.006.687.08.934.345.978 1.484.077 2.002-.937.539-1.52.283-1.751-.765-.149-.674.337-1.228.987-1.317zm-179.26 1.635c.212-.013.434.015.658.09l5.402 1.797c6.803 2.264 9.934 8.663 7.662 15.444-2.283 6.81-8.643 10.048-15.447 7.783l-5.402-1.797c-.895-.298-1.332-1.17-1.033-2.063l6.748-20.135c.224-.669.773-1.08 1.411-1.12zm85.226 1.822c1.298.056 2.565.373 3.975.941.602.242.822.534.98 1.043.361 1.169-.898 2.312-2.19 1.757-1.901-.827-3.436-1.111-6.052-.308-4.75 1.458-7.332 6.746-5.767 11.81 1.584 5.124 6.685 7.988 11.436 6.53 1.774-.545 3.199-1.575 4.376-2.986l-1.648-5.334-4.15 1.275c-.901.277-1.739-.09-1.989-.9-.25-.809.235-1.58 1.137-1.858l5.623-1.726c.902-.277 1.738.188 2.016 1.087l2.212 7.163c.13.42.13.845-.138 1.256-1.589 2.423-3.824 4.028-6.56 4.868-6.524 2.003-13.226-1.68-15.32-8.453-2.065-6.682 1.346-13.537 7.9-15.55 1.534-.47 2.862-.672 4.16-.615zm-102.72 1.054c.483-.036.992.005 1.519.134 3.164.773 4.99 3.988 3.925 6.914-1.505 4.14-6.684 4.492-8.94.607-1.994-3.437.115-7.406 3.496-7.655zm18.788.465-5.951 17.756 3.85 1.28c5.013 1.669 9.8-.835 11.544-6.04 1.745-5.204-.582-10.045-5.595-11.714zm169.515 3.058c.626.167.815.406.793 1.001-.04 1.084-1.2 1.926-1.888 1.37-.89-.719.005-2.662 1.095-2.37zm-8.096 4.475c.26-.072.533-.001.678.248a.565.565 0 0 1-.192.774c-.556.32-1.205.06-1.074-.427a.846.846 0 0 1 .588-.595zm-136.091 3.638a9.603 9.603 0 0 1 1.797.088c4.86.686 7.267 4.541 6.57 9.446-.115.807-.788 1.282-1.629 1.164l-11.836-1.673c.06 2.922 2.146 5.243 5.292 5.688 1.277.18 2.851-.168 3.78-.67.69-.378 1.5-.263 1.967.247.628.722.542 1.565-.219 1.996-1.56.92-4.008 1.365-5.908 1.096-5.203-.734-8.37-4.822-7.655-9.852.63-4.427 3.769-7.338 7.84-7.53zm21.755 1.125c4.906-.112 7.911 3.301 8.024 8.254.019.815-.566 1.393-1.415 1.412l-11.952.272c.538 2.873 2.974 4.826 6.151 4.754 1.29-.03 2.787-.628 3.622-1.275.618-.484 1.435-.503 1.98-.076.737.61.789 1.457.109 2.005-1.39 1.161-3.73 1.997-5.65 2.04-5.252.12-9.047-3.4-9.163-8.477-.117-5.11 3.324-8.796 8.294-8.909zm-21.452 1.562c-2.498.048-4.273 1.554-5.017 3.86l10.373 1.464c.006-2.723-1.438-4.858-4.242-5.254a6.992 6.992 0 0 0-1.114-.07zm128.885.465c.249-.029.527-.007.837.059 2.318.498 1.953 3.859-.422 3.89-1.473.02-2.278-.985-1.905-2.372.263-.977.743-1.493 1.49-1.577zm-107.372.67c-3.114.07-5.021 1.996-5.43 4.734l10.475-.24c-.44-2.686-2.214-4.559-5.045-4.494zm-110.888 1.312c2.145.14 2.914 2.904 1.17 4.207-.856.64-2.448.174-3.069-.898-.728-1.257.501-3.4 1.9-3.309zm205.152.527c.228.122.36.546.292.941-.151.882-1.36.82-1.502-.076-.108-.675.61-1.186 1.21-.865zm-189.743 4.67a.95.95 0 0 1 .433.413c.469.807-.376 1.142-1.02.403-.251-.29-.211-.614.099-.792a.534.534 0 0 1 .488-.025zm183.11 5.99c.39.088.772.273 1.11.562 1.878 1.603.426 4.126-2.16 3.755-1.594-.23-2.133-1.12-1.686-2.783.324-1.205 1.566-1.8 2.736-1.535zm-175.717.746c.17.024.315.11.397.25.395.682-.4 1.602-1.071 1.24-.712-.381-.662-.92.13-1.375a.859.859 0 0 1 .544-.115zm184.266 3.573c.723-.111.34.485-1.167 1.791-.944.817-3.032 2.736-4.641 4.266-7.772 7.384-28.052 18.595-42.411 23.447-6.292 2.127-16.296 4.847-17.385 4.727-2.09-.229-.976-2.353 1.976-3.764 1.052-.502 3.082-1.475 4.515-2.159 1.433-.685 4.085-1.79 5.893-2.46 10.27-3.796 13.243-5.204 27.402-12.961 7.725-4.232 14.271-7.688 14.545-7.68.274.009 2.886-1.234 5.806-2.758 2.916-1.521 4.744-2.338 5.467-2.45zm-177.555 1.866a.792.792 0 0 1 .493.162c.718.58.751 1.556.066 1.95-.639.368-1.802-.407-1.778-1.182.016-.518.666-.937 1.219-.93zm142.234 6.424c.863.23 1.518 1.467 1.214 2.287-.36.967-1.745 1.15-2.537.337-1.17-1.203-.242-3.043 1.323-2.624zm-177.58 3.303a.5.5 0 0 0-.411.023c-.178.103-.33.397-.338.655-.02.682 1.355 1.113 1.526.478.118-.44-.339-1.014-.777-1.156zm67.566 3.213c.268-.02.55.005.841.083 2.32.62 3.165 4.365 1.237 5.475-1.325.763-3.24.254-4.004-1.064-1.142-1.971.05-4.347 1.926-4.494zm88.638.833c.138-.08.565-.03.948.111.937.346 1.05 1.39.204 1.877-.377.217-.903.219-1.17.004-.478-.386-.467-1.713.018-1.992zm-6.366 2.962c.239-.027.498-.007.772.066 1.613.43 2.046 2.991.643 3.798-1.442.83-3.22-.681-2.846-2.417.183-.85.714-1.364 1.43-1.447zm-30.755 1.099a.646.646 0 0 1 .39.28c.155.268.048.687-.236.933-.364.314-.639.235-.928-.264-.289-.499-.221-.779.232-.936a.919.919 0 0 1 .542-.013zm-12.03 2.193a1.963 1.963 0 0 1 1.079.002c.967.258 1.197.578 1.234 1.719.052 1.625-2.298 2.128-3.141.671-.607-1.047-.121-2.106.827-2.392zm23.863 2.446c.677.041 2.954 1.52 2.863 1.858-.186.692-4.045 1.068-4.167.406-.283-1.533.176-2.333 1.304-2.264z"/></svg>